<?xml version="1.0" encoding="UTF-8"?>
<svg version="1.1" xmlns="http://www.w3.org/2000/svg" width="192" height="192">
<path d="M0 0 C63.36 0 126.72 0 192 0 C192 63.36 192 126.72 192 192 C128.64 192 65.28 192 0 192 C0 128.64 0 65.28 0 0 Z " fill="oklch(0.548 0.235 274.4)" transform="translate(0,0)"/>
<path d="M0 0 C1.37998743 -0.01148238 2.75993176 -0.03187501 4.13964844 -0.06152344 C12.27413114 -0.23617528 18.52655896 -0.32319918 25.39575195 4.29516602 C27.37631889 6.19748346 28.7765883 8.02833691 30.39575195 10.29516602 C30.99387695 11.05829102 31.59200195 11.82141602 32.20825195 12.60766602 C33.89151002 16.41714479 34.01769008 20.18391267 33.39575195 24.29516602 C32.73575195 24.95516602 32.07575195 25.61516602 31.39575195 26.29516602 C27.77075195 25.92016602 27.77075195 25.92016602 24.39575195 25.29516602 C24.1534082 24.6080957 23.91106445 23.92102539 23.66137695 23.21313477 C23.3262207 22.31208008 22.99106445 21.41102539 22.64575195 20.48266602 C22.3209082 19.5893457 21.99606445 18.69602539 21.66137695 17.77563477 C20.19755198 14.90671854 19.14936091 13.9369316 16.39575195 12.29516602 C11.96122807 11.66367944 7.49535864 11.83181482 3.02075195 11.85766602 C1.80129883 11.83768555 0.5818457 11.81770508 -0.67456055 11.79711914 C-9.45938262 11.76696418 -9.45938262 11.76696418 -16.60424805 16.29516602 C-18.97033318 19.3065471 -18.96660429 22.49686572 -18.85424805 26.26782227 C-18.45986359 29.46603373 -17.39549098 31.63918512 -15.60424805 34.29516602 C-11.82914803 37.08374164 -9.30234291 37.5482922 -4.66674805 37.48266602 C0.77205485 37.78444916 0.77205485 37.78444916 3.5090332 40.02563477 C5.95445731 43.22978234 7.39575195 45.19844483 7.39575195 49.29516602 C4.37436628 49.37666193 1.3552129 49.43590022 -1.66674805 49.48266602 C-2.93808594 49.52037109 -2.93808594 49.52037109 -4.23510742 49.55883789 C-12.76310191 49.65761775 -18.49884149 47.20881442 -24.8034668 41.36938477 C-29.88984258 35.51067426 -31.30248762 28.50994595 -30.9909668 20.90454102 C-30.00878602 14.27730105 -26.6402801 9.61176492 -21.60424805 5.29516602 C-14.29489627 0.03243273 -8.81234155 0.05099855 0 0 Z " fill="#F9F8FC" transform="translate(76.604248046875,50.704833984375)"/>
<path d="M0 0 C22.1209564 -0.81012658 22.1209564 -0.81012658 30.75 6.25 C31.86375 7.61125 31.86375 7.61125 33 9 C33.46535156 9.54140625 33.93070313 10.0828125 34.41015625 10.640625 C38.26288705 15.74898116 38.75098554 20.43647252 38.48046875 26.74609375 C37.36453331 34.30360775 33.88578041 39.92183143 28.0390625 44.74609375 C20.27178072 49.52252565 13.58581875 49.48715308 4.5625 49.4375 C2.63567383 49.4674707 2.63567383 49.4674707 0.66992188 49.49804688 C-7.90240714 49.49363043 -13.85092453 48.77188679 -20.27734375 42.9296875 C-20.82519531 42.25164062 -21.37304688 41.57359375 -21.9375 40.875 C-22.50339844 40.19179687 -23.06929688 39.50859375 -23.65234375 38.8046875 C-26.60498525 34.8507154 -26.15337024 31.83116267 -26 27 C-25 26 -25 26 -22.1875 25.625 C-19 26 -19 26 -16.875 28.1875 C-16.25625 29.115625 -15.6375 30.04375 -15 31 C-12.44805326 34.53669544 -12.44805326 34.53669544 -9 37 C-4.58979106 37.32585719 -0.17074666 37.32460807 4.25 37.375 C5.47847656 37.41238281 6.70695312 37.44976562 7.97265625 37.48828125 C15.36406145 37.76272587 15.36406145 37.76272587 21.7734375 34.625 C24.98622818 30.83728888 25.8720539 28.43299633 26.3125 23.5 C25.97170637 19.68311135 25.38788303 17.96426858 23 15 C19.20188626 12.24074315 16.70668073 11.74675227 12.0625 11.8125 C6.62369711 11.51071686 6.62369711 11.51071686 3.88671875 9.26953125 C1.44129464 6.06538368 0 4.09672119 0 0 Z " fill="#F9F9FC" transform="translate(108,51)"/>
<path d="M0 0 C4.22184587 0.64708666 7.6879162 2.10300604 11.5625 3.875 C34.89283951 14.2149325 64.73449652 14.4635248 88.69384766 5.97509766 C91.96356762 4.59258003 94.96573743 2.84364775 97.98120117 0.97729492 C100 0 100 0 104 0 C104.36015986 3.15139874 104.15983345 4.72202878 102.5625 7.5 C96.84189995 13.08107322 90.08566201 15.48122799 82.5625 17.75 C81.5257312 18.06614258 81.5257312 18.06614258 80.46801758 18.38867188 C67.97156907 21.95199247 54.86397855 21.2142736 42 21 C40.84628906 20.98324219 39.69257812 20.96648437 38.50390625 20.94921875 C25.96191029 20.34038399 10.60171774 16.44070023 1.4375 7.5 C-0.15983345 4.72202878 -0.36015986 3.15139874 0 0 Z " fill="#F9F8FC" transform="translate(44,104)"/>
<path d="M0 0 C4.79614281 -0.28395253 7.96793713 0.60256634 12.3671875 2.46484375 C19.65657076 5.17514635 26.35295293 5.73940223 34.06884766 5.59692383 C36.13191195 5.56238428 38.19071504 5.57640498 40.25390625 5.59570312 C49.49833553 5.58398316 57.67776159 4.16111921 66 0 C67.99960012 -0.039992 70.00047242 -0.04346799 72 0 C71.71799583 3.38405002 71.28694239 4.72125596 68.8125 7.125 C55.11895194 16.25403204 35.66641086 17.43974933 19.7578125 14.2734375 C12.17187705 12.26683522 4.49380423 9.74070634 0 3 C0 2.01 0 1.02 0 0 Z " fill="#F6F5FB" transform="translate(60,128)"/>
</svg>
